<svg xmlns="http://www.w3.org/2000/svg" x="0px" y="0px"
width="48" height="48"
viewBox="0 0 172 172"
style=" fill:#000000;"><g fill="none" fill-rule="nonzero" stroke="none" stroke-width="1" stroke-linecap="butt" stroke-linejoin="miter" stroke-miterlimit="10" stroke-dasharray="" stroke-dashoffset="0" font-family="none" font-weight="none" font-size="none" text-anchor="none" style="mix-blend-mode: normal"><path d="M0,172v-172h172v172z" fill="none"></path><g fill="#80deea"><path d="M86,121.83333c-46.225,0 -82.41667,-15.76667 -82.41667,-35.83333c0,-20.06667 36.19167,-35.83333 82.41667,-35.83333c46.225,0 82.41667,15.76667 82.41667,35.83333c0,20.06667 -36.19167,35.83333 -82.41667,35.83333zM86,57.33333c-45.15,0 -75.25,14.69167 -75.25,28.66667c0,13.975 30.1,28.66667 75.25,28.66667c45.15,0 75.25,-14.69167 75.25,-28.66667c0,-13.975 -30.1,-28.66667 -75.25,-28.66667z"></path><path d="M54.10833,159.81667c-3.58333,0 -6.45,-0.71667 -9.31667,-2.50833c-17.55833,-10.03333 -12.9,-49.09167 10.03333,-89.225v0c10.75,-18.63333 24.00833,-34.4 36.90833,-44.43333c13.975,-10.75 26.51667,-13.975 35.11667,-8.95833c8.95833,5.01667 12.18333,17.55833 10.03333,35.11667c-2.15,16.48333 -9.31667,35.83333 -20.06667,54.46667c-10.75,18.63333 -24.00833,34.4 -36.90833,44.43333c-9.31667,7.16667 -18.275,11.10833 -25.8,11.10833zM117.89167,19.35c-5.73333,0 -13.25833,3.225 -21.5,9.675c-12.18333,9.675 -24.725,24.725 -35.11667,42.64167v0c-22.575,39.05833 -24.725,72.74167 -12.9,79.55c6.09167,3.58333 16.125,0.35833 27.23333,-8.24167c12.18333,-9.675 24.725,-24.725 35.11667,-42.64167c10.39167,-17.91667 17.2,-36.19167 19.35,-51.6c1.79167,-14.33333 -0.35833,-24.36667 -6.45,-27.95c-1.79167,-0.71667 -3.58333,-1.43333 -5.73333,-1.43333z"></path><path d="M118.25,159.81667c-17.91667,0 -43.71667,-21.85833 -63.06667,-55.9c-23.29167,-40.13333 -27.95,-79.19167 -10.39167,-89.225v0c17.55833,-10.03333 49.09167,13.25833 72.38333,53.39167c10.75,18.63333 17.91667,37.98333 20.06667,54.46667c2.50833,17.55833 -1.075,29.74167 -10.03333,35.11667c-2.86667,1.43333 -5.73333,2.15 -8.95833,2.15zM48.375,20.78333c-11.825,6.80833 -9.675,40.49167 12.9,79.55c22.575,39.05833 50.525,57.69167 62.35,50.88333c6.09167,-3.58333 8.24167,-13.61667 6.45,-27.95c-2.15,-15.40833 -8.95833,-33.68333 -19.35,-51.6c-22.575,-39.05833 -50.525,-57.69167 -62.35,-50.88333z"></path><circle cx="24" cy="24" transform="scale(3.58333,3.58333)" r="4"></circle></g></g></svg>