<svg xmlns="http://www.w3.org/2000/svg" x="0px" y="0px"
width="50" height="50"
viewBox="0 0 172 172"
style=" fill:#000000;"><g fill="none" fill-rule="nonzero" stroke="none" stroke-width="1" stroke-linecap="butt" stroke-linejoin="miter" stroke-miterlimit="10" stroke-dasharray="" stroke-dashoffset="0" font-family="none" font-weight="none" font-size="none" text-anchor="none" style="mix-blend-mode: normal"><path d="M0,172v-172h172v172z" fill="none"></path><g fill="#cd3aa5"><path d="M109.1555,80.48883c-2.18583,0 -3.77683,0.8815 -4.78733,2.6445c-1.0105,1.763 -1.51217,4.902 -1.51217,9.40983v3.14617c0,4.47917 0.473,7.611 1.42617,9.38833c0.95317,1.77733 2.5585,2.666 4.83033,2.666c2.35067,0 4.128,-1.04633 5.332,-3.14617v-20.7475c-1.16817,-2.236 -2.93117,-3.36117 -5.289,-3.36117zM136.16667,21.5h-100.33333c-7.912,0 -14.33333,6.41417 -14.33333,14.33333v100.33333c0,7.91917 6.42133,14.33333 14.33333,14.33333h100.33333c7.912,0 14.33333,-6.41417 14.33333,-14.33333v-100.33333c0,-7.91917 -6.42133,-14.33333 -14.33333,-14.33333zM73.63033,116.81667l-8.39933,-21.371l-8.34917,21.371h-14.32617l14.69883,-30.82383l-14.405,-30.315h14.15417l8.22733,20.99833l8.22733,-20.99833h14.15417l-14.362,30.315l14.69883,30.82383zM126.42,116.81667h-10.793l-0.54467,-4.6225c-2.43667,3.64067 -5.5685,5.461 -9.40983,5.461c-4.75867,0 -8.39217,-1.82033 -10.9005,-5.461c-2.50833,-3.64067 -3.784,-8.987 -3.84133,-16.039v-3.44c0,-7.44617 1.26133,-13.00033 3.77683,-16.66967c2.5155,-3.66933 6.18483,-5.504 11.00083,-5.504c3.49733,0 6.41417,1.51217 8.73617,4.5365v-22.76133h11.96833v64.5z"></path></g></g></svg>